<svg xmlns="http://www.w3.org/2000/svg" width="12.559" height="16.749" viewBox="0 0 12.559 16.749"><defs><style>.a{fill:#ffc764;stroke:#ffc764;stroke-width:0.1px;}</style></defs><g transform="translate(0.05 0.05)"><path class="a" d="M72.309,7.256h-.245V5.086a5.086,5.086,0,1,0-10.173,0,.466.466,0,0,0,.931,0,4.155,4.155,0,1,1,8.311,0V7.256H61.65a.9.9,0,0,0-.9.9v5.8a2.7,2.7,0,0,0,2.7,2.7h7.066a2.7,2.7,0,0,0,2.7-2.7v-5.8A.9.9,0,0,0,72.309,7.256Zm-.031,6.7a1.767,1.767,0,0,1-1.766,1.766H63.45a1.767,1.767,0,0,1-1.766-1.766V8.187H72.278v5.766Z" transform="translate(-60.75)"/><path class="a" d="M192.691,301.583a1.741,1.741,0,1,0-1.741-1.741A1.743,1.743,0,0,0,192.691,301.583Zm0-2.555a.812.812,0,1,1-.81.814A.812.812,0,0,1,192.691,299.028Z" transform="translate(-186.46 -287.82)"/></g></svg>