<svg xmlns="http://www.w3.org/2000/svg" width="14.716" height="17.281" viewBox="0 0 14.716 17.281"><defs><style>.a{fill:#ffc764;stroke:#ffc764;stroke-width:0.1px;}</style></defs><g transform="translate(0.051 0.05)"><path class="a" d="M140.733,9.257h.114a3.283,3.283,0,0,0,2.508-1.085c1.37-1.544,1.142-4.191,1.117-4.444A3.63,3.63,0,0,0,142.746.5a3.956,3.956,0,0,0-1.914-.5h-.061a3.962,3.962,0,0,0-1.914.487,3.632,3.632,0,0,0-1.747,3.241c-.025.253-.253,2.9,1.117,4.444A3.27,3.27,0,0,0,140.733,9.257Zm-2.672-5.44c0-.011,0-.021,0-.028.117-2.551,1.928-2.825,2.7-2.825h.043a2.6,2.6,0,0,1,2.7,2.825.069.069,0,0,0,0,.028c0,.025.253,2.444-.879,3.718a2.332,2.332,0,0,1-1.832.761h-.036a2.324,2.324,0,0,1-1.829-.761C137.815,6.269,138.057,3.839,138.061,3.817Z" transform="translate(-133.488)"/><path class="a" d="M50.686,263.668v-.011c0-.029,0-.057,0-.089-.021-.7-.068-2.352-1.612-2.878l-.036-.011a10.267,10.267,0,0,1-2.953-1.345.48.48,0,1,0-.551.786,11.08,11.08,0,0,0,3.248,1.484c.829.3.921,1.181.946,1.992a.717.717,0,0,0,0,.089,6.458,6.458,0,0,1-.075,1.1,13.094,13.094,0,0,1-6.272,1.459,13.169,13.169,0,0,1-6.276-1.462,6.114,6.114,0,0,1-.075-1.1c0-.028,0-.057,0-.089.025-.811.117-1.7.946-1.992a11.184,11.184,0,0,0,3.248-1.484.48.48,0,1,0-.551-.786,10.152,10.152,0,0,1-2.953,1.345l-.036.011c-1.544.53-1.59,2.177-1.612,2.878a.715.715,0,0,1,0,.089v.011a5.456,5.456,0,0,0,.181,1.612.457.457,0,0,0,.185.224,13.458,13.458,0,0,0,6.945,1.7,13.5,13.5,0,0,0,6.945-1.7.476.476,0,0,0,.185-.224A5.725,5.725,0,0,0,50.686,263.668Z" transform="translate(-36.073 -250.021)"/></g></svg>