<svg xmlns="http://www.w3.org/2000/svg" width="19.494" height="16.749" viewBox="0 0 19.494 16.749"><defs><style>.a{fill:#ffc764;stroke:#ffc764;stroke-width:0.1px;}</style></defs><g transform="translate(0.05 0.05)"><path class="a" d="M16.278,36.621H11.684a2.029,2.029,0,0,1-2.027-2.027.542.542,0,0,0-.544-.544h-6A3.12,3.12,0,0,0,0,37.165V47.584A3.12,3.12,0,0,0,3.115,50.7H16.278a3.12,3.12,0,0,0,3.115-3.115V39.733A3.117,3.117,0,0,0,16.278,36.621ZM18.306,47.58a2.029,2.029,0,0,1-2.027,2.027H3.115A2.029,2.029,0,0,1,1.088,47.58V37.165a2.029,2.029,0,0,1,2.027-2.027h5.5a3.121,3.121,0,0,0,3.067,2.571h4.595a2.029,2.029,0,0,1,2.027,2.027V47.58Z" transform="translate(0 -34.05)"/></g></svg>