<svg xmlns="http://www.w3.org/2000/svg" width="18.113" height="17.254" viewBox="0 0 18.113 17.254"><defs><style>.a{fill:#ffc764;stroke:#ffc764;stroke-width:0.1px;}</style></defs><g transform="translate(0.082 0.077)"><path class="a" d="M17.785,18.869,9.338,11.315a.237.237,0,0,0-.048-.037.5.5,0,0,0-.676-.011L.167,18.821a.5.5,0,0,0,.665.746L2.352,18.2v8.809a1.257,1.257,0,0,0,1.255,1.255H6.273a1.179,1.179,0,0,0,1.178-1.178V22.612a.181.181,0,0,1,.181-.181h2.691a.181.181,0,0,1,.181.181v4.478a1.179,1.179,0,0,0,1.178,1.178h2.666A1.427,1.427,0,0,0,15.6,26.7V18.252l1.521,1.362a.5.5,0,0,0,.705-.041A.508.508,0,0,0,17.785,18.869ZM14.6,21.331v5.357c0,.358-.177.576-.258.576H11.678a.181.181,0,0,1-.181-.181V22.612a1.179,1.179,0,0,0-1.178-1.178H7.628A1.179,1.179,0,0,0,6.45,22.612v4.478a.181.181,0,0,1-.181.181H3.6a.259.259,0,0,1-.258-.258v-9.7L8.95,12.3,14.6,17.359v3.972Z" transform="translate(0 -11.141)"/></g></svg>