<svg xmlns="http://www.w3.org/2000/svg" width="17.332" height="17.332" viewBox="0 0 17.332 17.332"><defs><style>.a{fill:#ffc764;stroke:#ffc764;stroke-width:0.1px;}</style></defs><g transform="translate(0.051 0.05)"><path class="a" d="M14.721,2.525A8.614,8.614,0,0,0,2,14.11,3.3,3.3,0,0,1,.615,15.64a.808.808,0,0,0,.233,1.523,4.452,4.452,0,0,0,.681.051A5.143,5.143,0,0,0,4.56,16.208,8.613,8.613,0,0,0,14.721,2.525Zm-.7,11.487A7.63,7.63,0,0,1,4.764,15.2a.49.49,0,0,0-.6.077.162.162,0,0,0-.04.029,4.206,4.206,0,0,1-2.6.925h0A4.823,4.823,0,0,0,3,14.266a.5.5,0,0,0,.026-.317.511.511,0,0,0-.12-.277,7.631,7.631,0,1,1,11.115.339Z" transform="translate(-0.019)"/><ellipse class="a" cx="0.605" cy="0.605" rx="0.605" ry="0.605" transform="translate(8.006 8.011)"/><ellipse class="a" cx="0.605" cy="0.605" rx="0.605" ry="0.605" transform="translate(11.125 8.011)"/><ellipse class="a" cx="0.605" cy="0.605" rx="0.605" ry="0.605" transform="translate(4.888 8.011)"/></g></svg>