<svg xmlns="http://www.w3.org/2000/svg" width="16" height="16" viewBox="0 0 16 16"><defs><style>.a{fill:#fff;}.b{fill:#3e3c3c;}</style></defs><g transform="translate(-258 -57)"><circle class="a" cx="8" cy="8" r="8" transform="translate(258 57)"/><g transform="translate(262 60.972)"><path class="b" d="M7.332.535a1.729,1.729,0,0,0-2.447,0L.4,5.02a.224.224,0,0,0-.063.129L0,7.611A.224.224,0,0,0,.066,7.8a.228.228,0,0,0,.159.067.182.182,0,0,0,.03,0l1.483-.2a.226.226,0,0,0-.06-.448l-1.189.16L.721,5.66,2.528,7.467a.228.228,0,0,0,.159.067.221.221,0,0,0,.159-.067L7.332,2.982a1.728,1.728,0,0,0,0-2.447Zm-2.36.551.753.753L1.631,5.934.878,5.18Zm-2.283,5.9-.737-.737L6.046,2.159l.737.737ZM7.1,2.573l-1.8-1.8a1.28,1.28,0,0,1,1.8,1.8Z" transform="translate(0 0)"/></g></g></svg>