<svg xmlns="http://www.w3.org/2000/svg" width="17.662" height="18.181" viewBox="0 0 17.662 18.181"><defs><style>.a{fill:#3e3c3c;}</style></defs><g transform="translate(-6.85)"><g transform="translate(6.85)"><path class="a" d="M175.254,8.862V.511a.511.511,0,0,0-1.022,0v8.35a2.595,2.595,0,0,0,0,5.088v3.717a.511.511,0,1,0,1.022,0V13.949a2.595,2.595,0,0,0,0-5.088Zm-.511,4.115a1.571,1.571,0,1,1,1.571-1.571A1.572,1.572,0,0,1,174.743,12.976Z" transform="translate(-165.893 0)"/><path class="a" d="M9.954,4.576V.511a.511.511,0,0,0-1.022,0V4.576a2.595,2.595,0,0,0,0,5.088v8a.511.511,0,1,0,1.022,0V9.66a2.593,2.593,0,0,0,0-5.084ZM9.443,8.691A1.571,1.571,0,1,1,11.014,7.12,1.572,1.572,0,0,1,9.443,8.691Z" transform="translate(-6.85 0)"/><path class="a" d="M339.554,4.576V.511a.511.511,0,1,0-1.022,0V4.576a2.595,2.595,0,0,0,0,5.088V17.67a.511.511,0,1,0,1.022,0V9.66a2.593,2.593,0,0,0,0-5.084Zm-.511,4.115a1.571,1.571,0,1,1,1.571-1.571A1.572,1.572,0,0,1,339.043,8.691Z" transform="translate(-323.974 0)"/></g></g></svg>