<svg xmlns="http://www.w3.org/2000/svg" width="13" height="13" viewBox="0 0 13 13"><defs><style>.a{fill:#ffc764;}.b{fill:#3e3c3c;stroke:#3e3c3c;stroke-width:0.3px;}</style></defs><g transform="translate(-340 -521)"><g transform="translate(352.694 521) rotate(90)"><circle class="a" cx="6.5" cy="6.5" r="6.5" transform="translate(0 -0.306)"/><g transform="translate(11.25 2.804) rotate(90)"><path class="b" d="M.673,4.914,5.111,9.353a.278.278,0,0,1-.393.393L.082,5.11a.277.277,0,0,1,0-.393L4.718.082A.28.28,0,0,1,4.914,0a.271.271,0,0,1,.2.082.277.277,0,0,1,0,.393Z" transform="translate(0 0)"/></g></g></g></svg>